<svg xmlns="http://www.w3.org/2000/svg" viewBox="0 0 128 128" role="img" aria-label="Plugin Marketplace">
  <defs>
    <linearGradient id="marketBg" x1="0" x2="1" y1="0" y2="1">
      <stop offset="0%" stop-color="#0EA5E9"/>
      <stop offset="100%" stop-color="#22C55E"/>
    </linearGradient>
  </defs>
  <rect x="8" y="8" width="112" height="112" rx="28" fill="url(#marketBg)"/>
  <path d="M43 36h42c3.866 0 7 3.134 7 7v42c0 3.866-3.134 7-7 7H43c-3.866 0-7-3.134-7-7V43c0-3.866 3.134-7 7-7Z" fill="#FFFFFF" fill-opacity="0.16"/>
  <path d="M52 52h24a12 12 0 0 1 0 24H52a8 8 0 0 1 0-16h4" fill="none" stroke="#FFFFFF" stroke-linecap="round" stroke-linejoin="round" stroke-width="10"/>
  <circle cx="84" cy="84" r="14" fill="#FFFFFF"/>
  <path d="M84 76v16M76 84h16" stroke="#0EA5E9" stroke-linecap="round" stroke-width="8"/>
</svg>
